<svg xmlns="http://www.w3.org/2000/svg" xmlns:xlink="http://www.w3.org/1999/xlink" width="500" zoomAndPan="magnify" viewBox="0 0 375 112.499997" height="150" preserveAspectRatio="xMidYMid meet" version="1.0"><defs><g/></defs><g fill="#000000" fill-opacity="1"><g transform="translate(0.955071, 74.518651)"><g><path d="M 4.109375 0 L 4.109375 -1.046875 C 5.347656 -1.421875 6.195312 -2.226562 6.65625 -3.46875 C 7.113281 -4.707031 7.34375 -6.960938 7.34375 -10.234375 L 7.34375 -46.203125 C 7.34375 -49.535156 7.113281 -51.804688 6.65625 -53.015625 C 6.195312 -54.222656 5.347656 -55.019531 4.109375 -55.40625 L 4.109375 -56.453125 L 41.609375 -56.453125 L 42.5 -45.96875 L 41.609375 -45.71875 C 40.210938 -49.269531 38.265625 -51.742188 35.765625 -53.140625 C 33.265625 -54.535156 29.945312 -55.234375 25.8125 -55.234375 L 13.953125 -55.234375 L 13.953125 -30.8125 L 24.265625 -30.8125 C 27.335938 -30.8125 29.71875 -31.007812 31.40625 -31.40625 C 33.101562 -31.8125 34.335938 -32.429688 35.109375 -33.265625 C 35.890625 -34.097656 36.441406 -35.101562 36.765625 -36.28125 L 37.734375 -36.28125 L 37.734375 -24.109375 L 36.765625 -24.109375 C 36.441406 -25.347656 35.890625 -26.367188 35.109375 -27.171875 C 34.335938 -27.984375 33.101562 -28.585938 31.40625 -28.984375 C 29.71875 -29.390625 27.335938 -29.59375 24.265625 -29.59375 L 13.953125 -29.59375 L 13.953125 -4.84375 C 13.953125 -2.414062 15.160156 -1.203125 17.578125 -1.203125 L 28.0625 -1.203125 C 31.9375 -1.203125 35.132812 -1.875 37.65625 -3.21875 C 40.1875 -4.5625 42.175781 -7.117188 43.625 -10.890625 L 44.515625 -10.71875 L 43.875 0 Z M 4.109375 0 "/></g></g></g><g fill="#000000" fill-opacity="1"><g transform="translate(48.446061, 74.518651)"><g><path d="M 34.59375 0.8125 C 28.414062 0.8125 23.050781 -0.289062 18.5 -2.5 C 13.957031 -4.707031 10.4375 -7.894531 7.9375 -12.0625 C 5.4375 -16.226562 4.1875 -21.238281 4.1875 -27.09375 C 4.1875 -31.394531 4.96875 -35.359375 6.53125 -38.984375 C 8.09375 -42.617188 10.3125 -45.789062 13.1875 -48.5 C 16.0625 -51.21875 19.472656 -53.316406 23.421875 -54.796875 C 27.378906 -56.273438 31.722656 -57.015625 36.453125 -57.015625 C 38.765625 -57.015625 41.113281 -56.8125 43.5 -56.40625 C 45.894531 -56 48.085938 -55.5 50.078125 -54.90625 C 52.066406 -54.320312 53.570312 -53.679688 54.59375 -52.984375 L 54.921875 -43.390625 L 54.109375 -43.21875 C 52.546875 -46.875 49.953125 -49.832031 46.328125 -52.09375 C 42.703125 -54.351562 38.492188 -55.484375 33.703125 -55.484375 C 29.460938 -55.484375 25.617188 -54.539062 22.171875 -52.65625 C 18.734375 -50.769531 16.003906 -47.972656 13.984375 -44.265625 C 11.972656 -40.554688 10.96875 -35.960938 10.96875 -30.484375 C 10.96875 -26.722656 11.515625 -23.066406 12.609375 -19.515625 C 13.710938 -15.960938 15.367188 -12.773438 17.578125 -9.953125 C 19.785156 -7.128906 22.5 -4.898438 25.71875 -3.265625 C 28.945312 -1.628906 32.660156 -0.8125 36.859375 -0.8125 C 41.210938 -0.8125 45.015625 -1.9375 48.265625 -4.1875 C 51.515625 -6.445312 53.921875 -9.753906 55.484375 -14.109375 L 56.375 -14.03125 L 55.078125 -3.546875 C 53.191406 -2.523438 50.4375 -1.539062 46.8125 -0.59375 C 43.1875 0.34375 39.113281 0.8125 34.59375 0.8125 Z M 34.59375 0.8125 "/></g></g></g><g fill="#000000" fill-opacity="1"><g transform="translate(108.192795, 74.518651)"><g><path d="M 32.90625 0.8125 C 29.457031 0.8125 26.039062 0.234375 22.65625 -0.921875 C 19.269531 -2.078125 16.175781 -3.851562 13.375 -6.25 C 10.582031 -8.644531 8.351562 -11.671875 6.6875 -15.328125 C 5.019531 -18.984375 4.1875 -23.3125 4.1875 -28.3125 C 4.1875 -33.84375 5.394531 -38.769531 7.8125 -43.09375 C 10.238281 -47.425781 13.601562 -50.84375 17.90625 -53.34375 C 22.207031 -55.84375 27.207031 -57.09375 32.90625 -57.09375 C 36.289062 -57.09375 39.675781 -56.5 43.0625 -55.3125 C 46.445312 -54.132812 49.523438 -52.347656 52.296875 -49.953125 C 55.066406 -47.566406 57.285156 -44.546875 58.953125 -40.890625 C 60.617188 -37.234375 61.453125 -32.929688 61.453125 -27.984375 C 61.453125 -22.984375 60.617188 -18.679688 58.953125 -15.078125 C 57.285156 -11.472656 55.050781 -8.488281 52.25 -6.125 C 49.457031 -3.757812 46.378906 -2.007812 43.015625 -0.875 C 39.660156 0.25 36.289062 0.8125 32.90625 0.8125 Z M 10.640625 -32.984375 C 10.804688 -28.953125 11.546875 -25.039062 12.859375 -21.25 C 14.179688 -17.457031 15.984375 -14.054688 18.265625 -11.046875 C 20.546875 -8.035156 23.21875 -5.640625 26.28125 -3.859375 C 29.351562 -2.085938 32.6875 -1.203125 36.28125 -1.203125 C 40.582031 -1.203125 44.15625 -2.144531 47 -4.03125 C 49.851562 -5.914062 51.96875 -8.484375 53.34375 -11.734375 C 54.71875 -14.984375 55.320312 -18.625 55.15625 -22.65625 C 55 -26.851562 54.257812 -30.898438 52.9375 -34.796875 C 51.625 -38.691406 49.835938 -42.171875 47.578125 -45.234375 C 45.316406 -48.296875 42.65625 -50.726562 39.59375 -52.53125 C 36.53125 -54.332031 33.195312 -55.234375 29.59375 -55.234375 C 25.507812 -55.234375 22.03125 -54.289062 19.15625 -52.40625 C 16.28125 -50.53125 14.101562 -47.925781 12.625 -44.59375 C 11.144531 -41.257812 10.484375 -37.390625 10.640625 -32.984375 Z M 10.640625 -32.984375 "/></g></g></g><g fill="#000000" fill-opacity="1"><g transform="translate(173.744882, 74.518651)"><g><path d="M 16.046875 0 L 16.046875 -1.046875 C 17.285156 -1.421875 18.128906 -2.226562 18.578125 -3.46875 C 19.035156 -4.707031 19.265625 -6.960938 19.265625 -10.234375 L 19.265625 -55.15625 L 15.328125 -55.15625 C 11.722656 -55.15625 8.976562 -54.585938 7.09375 -53.453125 C 5.21875 -52.328125 3.578125 -50.316406 2.171875 -47.421875 L 1.296875 -47.578125 L 1.78125 -56.453125 L 43.296875 -56.453125 L 43.78125 -47.578125 L 42.90625 -47.421875 C 41.5625 -50.316406 39.945312 -52.328125 38.0625 -53.453125 C 36.175781 -54.585938 33.40625 -55.15625 29.75 -55.15625 L 25.96875 -55.15625 L 25.96875 -10.234375 C 25.96875 -6.960938 26.195312 -4.707031 26.65625 -3.46875 C 27.113281 -2.226562 27.957031 -1.421875 29.1875 -1.046875 L 29.1875 0 Z M 16.046875 0 "/></g></g></g><g fill="#000000" fill-opacity="1"><g transform="translate(218.897616, 74.518651)"><g><path d="M 32.90625 0.8125 C 29.457031 0.8125 26.039062 0.234375 22.65625 -0.921875 C 19.269531 -2.078125 16.175781 -3.851562 13.375 -6.25 C 10.582031 -8.644531 8.351562 -11.671875 6.6875 -15.328125 C 5.019531 -18.984375 4.1875 -23.3125 4.1875 -28.3125 C 4.1875 -33.84375 5.394531 -38.769531 7.8125 -43.09375 C 10.238281 -47.425781 13.601562 -50.84375 17.90625 -53.34375 C 22.207031 -55.84375 27.207031 -57.09375 32.90625 -57.09375 C 36.289062 -57.09375 39.675781 -56.5 43.0625 -55.3125 C 46.445312 -54.132812 49.523438 -52.347656 52.296875 -49.953125 C 55.066406 -47.566406 57.285156 -44.546875 58.953125 -40.890625 C 60.617188 -37.234375 61.453125 -32.929688 61.453125 -27.984375 C 61.453125 -22.984375 60.617188 -18.679688 58.953125 -15.078125 C 57.285156 -11.472656 55.050781 -8.488281 52.25 -6.125 C 49.457031 -3.757812 46.378906 -2.007812 43.015625 -0.875 C 39.660156 0.25 36.289062 0.8125 32.90625 0.8125 Z M 10.640625 -32.984375 C 10.804688 -28.953125 11.546875 -25.039062 12.859375 -21.25 C 14.179688 -17.457031 15.984375 -14.054688 18.265625 -11.046875 C 20.546875 -8.035156 23.21875 -5.640625 26.28125 -3.859375 C 29.351562 -2.085938 32.6875 -1.203125 36.28125 -1.203125 C 40.582031 -1.203125 44.15625 -2.144531 47 -4.03125 C 49.851562 -5.914062 51.96875 -8.484375 53.34375 -11.734375 C 54.71875 -14.984375 55.320312 -18.625 55.15625 -22.65625 C 55 -26.851562 54.257812 -30.898438 52.9375 -34.796875 C 51.625 -38.691406 49.835938 -42.171875 47.578125 -45.234375 C 45.316406 -48.296875 42.65625 -50.726562 39.59375 -52.53125 C 36.53125 -54.332031 33.195312 -55.234375 29.59375 -55.234375 C 25.507812 -55.234375 22.03125 -54.289062 19.15625 -52.40625 C 16.28125 -50.53125 14.101562 -47.925781 12.625 -44.59375 C 11.144531 -41.257812 10.484375 -37.390625 10.640625 -32.984375 Z M 10.640625 -32.984375 "/></g></g></g><g fill="#000000" fill-opacity="1"><g transform="translate(284.449714, 74.518651)"><g><path d="M 16.046875 0 L 16.046875 -1.046875 C 17.285156 -1.421875 18.128906 -2.226562 18.578125 -3.46875 C 19.035156 -4.707031 19.265625 -6.960938 19.265625 -10.234375 L 19.265625 -55.15625 L 15.328125 -55.15625 C 11.722656 -55.15625 8.976562 -54.585938 7.09375 -53.453125 C 5.21875 -52.328125 3.578125 -50.316406 2.171875 -47.421875 L 1.296875 -47.578125 L 1.78125 -56.453125 L 43.296875 -56.453125 L 43.78125 -47.578125 L 42.90625 -47.421875 C 41.5625 -50.316406 39.945312 -52.328125 38.0625 -53.453125 C 36.175781 -54.585938 33.40625 -55.15625 29.75 -55.15625 L 25.96875 -55.15625 L 25.96875 -10.234375 C 25.96875 -6.960938 26.195312 -4.707031 26.65625 -3.46875 C 27.113281 -2.226562 27.957031 -1.421875 29.1875 -1.046875 L 29.1875 0 Z M 16.046875 0 "/></g></g></g><g fill="#000000" fill-opacity="1"><g transform="translate(329.602425, 74.518651)"><g><path d="M 22.984375 0.8125 C 18.734375 0.8125 14.914062 0.191406 11.53125 -1.046875 C 8.144531 -2.285156 5.507812 -3.578125 3.625 -4.921875 L 3.21875 -16.125 L 4.109375 -16.296875 C 5.179688 -13.492188 6.59375 -10.894531 8.34375 -8.5 C 10.09375 -6.113281 12.3125 -4.207031 15 -2.78125 C 17.6875 -1.351562 20.882812 -0.640625 24.59375 -0.640625 C 26.75 -0.640625 28.738281 -1.082031 30.5625 -1.96875 C 32.382812 -2.863281 33.847656 -4.113281 34.953125 -5.71875 C 36.054688 -7.332031 36.609375 -9.21875 36.609375 -11.375 C 36.609375 -13.414062 36.070312 -15.1875 35 -16.6875 C 33.925781 -18.195312 32.523438 -19.515625 30.796875 -20.640625 C 29.078125 -21.773438 27.265625 -22.757812 25.359375 -23.59375 C 23.453125 -24.425781 21.640625 -25.191406 19.921875 -25.890625 C 16.742188 -27.179688 13.984375 -28.484375 11.640625 -29.796875 C 9.304688 -31.109375 7.507812 -32.691406 6.25 -34.546875 C 4.988281 -36.410156 4.359375 -38.765625 4.359375 -41.609375 C 4.359375 -44.785156 5.175781 -47.515625 6.8125 -49.796875 C 8.457031 -52.078125 10.753906 -53.847656 13.703125 -55.109375 C 16.660156 -56.378906 20.101562 -57.015625 24.03125 -57.015625 C 27.6875 -57.015625 30.832031 -56.609375 33.46875 -55.796875 C 36.101562 -54.992188 38.195312 -54.160156 39.75 -53.296875 L 40.078125 -43.953125 L 39.265625 -43.703125 C 37.765625 -47.203125 35.578125 -50.078125 32.703125 -52.328125 C 29.828125 -54.585938 26.078125 -55.71875 21.453125 -55.71875 C 19.296875 -55.71875 17.289062 -55.300781 15.4375 -54.46875 C 13.582031 -53.632812 12.101562 -52.4375 11 -50.875 C 9.90625 -49.320312 9.359375 -47.390625 9.359375 -45.078125 C 9.359375 -43.191406 9.8125 -41.550781 10.71875 -40.15625 C 11.632812 -38.757812 12.84375 -37.550781 14.34375 -36.53125 C 15.851562 -35.507812 17.492188 -34.609375 19.265625 -33.828125 C 21.046875 -33.046875 22.796875 -32.304688 24.515625 -31.609375 C 27.523438 -30.429688 30.347656 -29.171875 32.984375 -27.828125 C 35.617188 -26.484375 37.753906 -24.84375 39.390625 -22.90625 C 41.035156 -20.96875 41.859375 -18.46875 41.859375 -15.40625 C 41.859375 -12.070312 40.941406 -9.179688 39.109375 -6.734375 C 37.285156 -4.285156 34.929688 -2.414062 32.046875 -1.125 C 29.171875 0.164062 26.148438 0.8125 22.984375 0.8125 Z M 22.984375 0.8125 "/></g></g></g></svg>